<mxfile host="app.diagrams.net" agent="Mozilla/5.0 (Macintosh; Intel Mac OS X 10_15_7) AppleWebKit/537.36 (KHTML, like Gecko) Chrome/136.0.0.0 Safari/537.36" version="27.0.6">
  <diagram name="Pagina-1" id="Z-THG3QK-rkqglYvYYoh">
    <mxGraphModel dx="757" dy="515" grid="1" gridSize="10" guides="1" tooltips="1" connect="1" arrows="1" fold="1" page="1" pageScale="1" pageWidth="827" pageHeight="1169" math="0" shadow="0">
      <root>
        <mxCell id="0" />
        <mxCell id="1" parent="0" />
        <mxCell id="owQzp86-0gMCmKCXw9nj-189" value="" style="edgeStyle=orthogonalEdgeStyle;rounded=0;orthogonalLoop=1;jettySize=auto;html=1;endArrow=none;startFill=0;" edge="1" parent="1" source="owQzp86-0gMCmKCXw9nj-190" target="owQzp86-0gMCmKCXw9nj-197">
          <mxGeometry relative="1" as="geometry" />
        </mxCell>
        <mxCell id="owQzp86-0gMCmKCXw9nj-190" value="" style="ellipse;whiteSpace=wrap;html=1;aspect=fixed;fillColor=#F2FF3D;" vertex="1" parent="1">
          <mxGeometry x="410" y="620" width="14" height="14" as="geometry" />
        </mxCell>
        <mxCell id="owQzp86-0gMCmKCXw9nj-191" value="Id_Encounter&lt;div&gt;&amp;nbsp;+&lt;div&gt;Code_Careplan&amp;nbsp;&lt;/div&gt;&lt;div&gt;&lt;span style=&quot;background-color: transparent; color: light-dark(rgb(0, 0, 0), rgb(255, 255, 255));&quot;&gt;+&lt;/span&gt;&lt;/div&gt;&lt;div&gt;Code_Condition&lt;/div&gt;&lt;/div&gt;" style="text;html=1;align=center;verticalAlign=middle;resizable=0;points=[];autosize=1;strokeColor=none;fillColor=none;" vertex="1" parent="1">
          <mxGeometry x="362" y="530" width="110" height="90" as="geometry" />
        </mxCell>
        <mxCell id="owQzp86-0gMCmKCXw9nj-192" style="edgeStyle=orthogonalEdgeStyle;rounded=0;orthogonalLoop=1;jettySize=auto;html=1;exitX=1;exitY=1;exitDx=0;exitDy=0;entryX=0;entryY=0.5;entryDx=0;entryDy=0;curved=1;endArrow=classic;startFill=0;endFill=1;" edge="1" parent="1" source="owQzp86-0gMCmKCXw9nj-197" target="owQzp86-0gMCmKCXw9nj-225">
          <mxGeometry relative="1" as="geometry">
            <Array as="points">
              <mxPoint x="622" y="640" />
              <mxPoint x="680" y="640" />
            </Array>
          </mxGeometry>
        </mxCell>
        <mxCell id="owQzp86-0gMCmKCXw9nj-193" style="edgeStyle=orthogonalEdgeStyle;rounded=0;orthogonalLoop=1;jettySize=auto;html=1;exitX=0.5;exitY=1;exitDx=0;exitDy=0;entryX=0.5;entryY=0;entryDx=0;entryDy=0;endArrow=none;startFill=0;" edge="1" parent="1" source="owQzp86-0gMCmKCXw9nj-197" target="owQzp86-0gMCmKCXw9nj-234">
          <mxGeometry relative="1" as="geometry" />
        </mxCell>
        <mxCell id="owQzp86-0gMCmKCXw9nj-194" style="edgeStyle=orthogonalEdgeStyle;rounded=0;orthogonalLoop=1;jettySize=auto;html=1;exitX=0;exitY=0;exitDx=0;exitDy=0;entryX=0.5;entryY=1;entryDx=0;entryDy=0;endArrow=none;startFill=0;curved=1;" edge="1" parent="1" source="owQzp86-0gMCmKCXw9nj-197" target="owQzp86-0gMCmKCXw9nj-236">
          <mxGeometry relative="1" as="geometry">
            <mxPoint x="590" y="500" as="targetPoint" />
          </mxGeometry>
        </mxCell>
        <mxCell id="owQzp86-0gMCmKCXw9nj-195" style="edgeStyle=orthogonalEdgeStyle;rounded=0;orthogonalLoop=1;jettySize=auto;html=1;exitX=0.5;exitY=0;exitDx=0;exitDy=0;entryX=0.5;entryY=1;entryDx=0;entryDy=0;curved=1;endArrow=none;startFill=0;" edge="1" parent="1" source="owQzp86-0gMCmKCXw9nj-197" target="owQzp86-0gMCmKCXw9nj-217">
          <mxGeometry relative="1" as="geometry" />
        </mxCell>
        <mxCell id="owQzp86-0gMCmKCXw9nj-196" style="edgeStyle=orthogonalEdgeStyle;rounded=0;orthogonalLoop=1;jettySize=auto;html=1;exitX=1;exitY=0.5;exitDx=0;exitDy=0;entryX=0;entryY=0.5;entryDx=0;entryDy=0;curved=1;endArrow=none;startFill=0;" edge="1" parent="1" source="owQzp86-0gMCmKCXw9nj-197" target="owQzp86-0gMCmKCXw9nj-318">
          <mxGeometry relative="1" as="geometry">
            <Array as="points">
              <mxPoint x="750" y="627" />
              <mxPoint x="750" y="412" />
              <mxPoint x="850" y="412" />
            </Array>
          </mxGeometry>
        </mxCell>
        <mxCell id="owQzp86-0gMCmKCXw9nj-197" value="" style="ellipse;whiteSpace=wrap;html=1;aspect=fixed;fillColor=#FFFFFF;" vertex="1" parent="1">
          <mxGeometry x="610" y="620" width="14" height="14" as="geometry" />
        </mxCell>
        <mxCell id="owQzp86-0gMCmKCXw9nj-198" style="edgeStyle=orthogonalEdgeStyle;rounded=0;orthogonalLoop=1;jettySize=auto;html=1;exitX=0.5;exitY=0;exitDx=0;exitDy=0;entryX=1;entryY=1;entryDx=0;entryDy=0;endArrow=none;startFill=0;curved=1;" edge="1" parent="1" source="owQzp86-0gMCmKCXw9nj-199" target="owQzp86-0gMCmKCXw9nj-190">
          <mxGeometry relative="1" as="geometry" />
        </mxCell>
        <mxCell id="owQzp86-0gMCmKCXw9nj-199" value="" style="ellipse;whiteSpace=wrap;html=1;aspect=fixed;fillColor=#FFFFFF;" vertex="1" parent="1">
          <mxGeometry x="430" y="670" width="14" height="14" as="geometry" />
        </mxCell>
        <mxCell id="owQzp86-0gMCmKCXw9nj-200" style="edgeStyle=orthogonalEdgeStyle;rounded=0;orthogonalLoop=1;jettySize=auto;html=1;exitX=0.5;exitY=0;exitDx=0;exitDy=0;entryX=0;entryY=1;entryDx=0;entryDy=0;curved=1;endArrow=none;startFill=0;" edge="1" parent="1" source="owQzp86-0gMCmKCXw9nj-201" target="owQzp86-0gMCmKCXw9nj-190">
          <mxGeometry relative="1" as="geometry" />
        </mxCell>
        <mxCell id="owQzp86-0gMCmKCXw9nj-201" value="" style="ellipse;whiteSpace=wrap;html=1;aspect=fixed;fillColor=#FFFFFF;" vertex="1" parent="1">
          <mxGeometry x="390" y="670" width="14" height="14" as="geometry" />
        </mxCell>
        <mxCell id="owQzp86-0gMCmKCXw9nj-202" value="Start" style="text;html=1;align=center;verticalAlign=middle;resizable=0;points=[];autosize=1;strokeColor=none;fillColor=none;" vertex="1" parent="1">
          <mxGeometry x="365" y="678" width="50" height="30" as="geometry" />
        </mxCell>
        <mxCell id="owQzp86-0gMCmKCXw9nj-203" value="Stop" style="text;html=1;align=center;verticalAlign=middle;resizable=0;points=[];autosize=1;strokeColor=none;fillColor=none;" vertex="1" parent="1">
          <mxGeometry x="430" y="678" width="50" height="30" as="geometry" />
        </mxCell>
        <mxCell id="owQzp86-0gMCmKCXw9nj-204" style="edgeStyle=orthogonalEdgeStyle;rounded=0;orthogonalLoop=1;jettySize=auto;html=1;exitX=1;exitY=0.5;exitDx=0;exitDy=0;entryX=0;entryY=0.5;entryDx=0;entryDy=0;endArrow=none;startFill=0;" edge="1" parent="1" source="owQzp86-0gMCmKCXw9nj-205" target="owQzp86-0gMCmKCXw9nj-190">
          <mxGeometry relative="1" as="geometry" />
        </mxCell>
        <mxCell id="owQzp86-0gMCmKCXw9nj-205" value="" style="ellipse;whiteSpace=wrap;html=1;aspect=fixed;fillColor=#FFFFFF;" vertex="1" parent="1">
          <mxGeometry x="320" y="620" width="14" height="14" as="geometry" />
        </mxCell>
        <mxCell id="owQzp86-0gMCmKCXw9nj-206" value="" style="ellipse;whiteSpace=wrap;html=1;aspect=fixed;fillColor=#FFFFFF;" vertex="1" parent="1">
          <mxGeometry x="410" y="750" width="14" height="14" as="geometry" />
        </mxCell>
        <mxCell id="owQzp86-0gMCmKCXw9nj-207" style="edgeStyle=orthogonalEdgeStyle;rounded=0;orthogonalLoop=1;jettySize=auto;html=1;exitX=0.5;exitY=1;exitDx=0;exitDy=0;entryX=0.496;entryY=-0.153;entryDx=0;entryDy=0;entryPerimeter=0;endArrow=none;startFill=0;" edge="1" parent="1" source="owQzp86-0gMCmKCXw9nj-190">
          <mxGeometry relative="1" as="geometry">
            <mxPoint x="416.91" y="636.0699999999998" as="sourcePoint" />
            <mxPoint x="416.8540000000001" y="749.928" as="targetPoint" />
          </mxGeometry>
        </mxCell>
        <mxCell id="owQzp86-0gMCmKCXw9nj-208" value="Code_Careplan" style="text;html=1;align=center;verticalAlign=middle;resizable=0;points=[];autosize=1;strokeColor=none;fillColor=none;" vertex="1" parent="1">
          <mxGeometry x="424" y="742" width="110" height="30" as="geometry" />
        </mxCell>
        <mxCell id="owQzp86-0gMCmKCXw9nj-209" style="edgeStyle=orthogonalEdgeStyle;rounded=0;orthogonalLoop=1;jettySize=auto;html=1;exitX=0.5;exitY=0;exitDx=0;exitDy=0;entryX=0.5;entryY=1;entryDx=0;entryDy=0;endArrow=none;startFill=0;" edge="1" parent="1" source="owQzp86-0gMCmKCXw9nj-210" target="owQzp86-0gMCmKCXw9nj-206">
          <mxGeometry relative="1" as="geometry" />
        </mxCell>
        <mxCell id="owQzp86-0gMCmKCXw9nj-210" value="" style="ellipse;whiteSpace=wrap;html=1;aspect=fixed;fillColor=#FFFFFF;" vertex="1" parent="1">
          <mxGeometry x="410" y="790" width="14" height="14" as="geometry" />
        </mxCell>
        <mxCell id="owQzp86-0gMCmKCXw9nj-211" value="Description" style="text;html=1;align=center;verticalAlign=middle;resizable=0;points=[];autosize=1;strokeColor=none;fillColor=none;" vertex="1" parent="1">
          <mxGeometry x="424" y="782" width="80" height="30" as="geometry" />
        </mxCell>
        <mxCell id="owQzp86-0gMCmKCXw9nj-212" value="Code_Condition" style="text;html=1;align=center;verticalAlign=middle;resizable=0;points=[];autosize=1;strokeColor=none;fillColor=none;" vertex="1" parent="1">
          <mxGeometry x="272" y="634" width="110" height="30" as="geometry" />
        </mxCell>
        <mxCell id="owQzp86-0gMCmKCXw9nj-213" style="edgeStyle=orthogonalEdgeStyle;rounded=0;orthogonalLoop=1;jettySize=auto;html=1;entryX=0;entryY=0.5;entryDx=0;entryDy=0;endArrow=none;startFill=0;" edge="1" parent="1" source="owQzp86-0gMCmKCXw9nj-214" target="owQzp86-0gMCmKCXw9nj-205">
          <mxGeometry relative="1" as="geometry" />
        </mxCell>
        <mxCell id="owQzp86-0gMCmKCXw9nj-214" value="" style="ellipse;whiteSpace=wrap;html=1;aspect=fixed;fillColor=#FFFFFF;" vertex="1" parent="1">
          <mxGeometry x="250" y="620" width="14" height="14" as="geometry" />
        </mxCell>
        <mxCell id="owQzp86-0gMCmKCXw9nj-215" value="Description" style="text;html=1;align=center;verticalAlign=middle;resizable=0;points=[];autosize=1;strokeColor=none;fillColor=none;" vertex="1" parent="1">
          <mxGeometry x="217" y="590" width="80" height="30" as="geometry" />
        </mxCell>
        <mxCell id="owQzp86-0gMCmKCXw9nj-216" value="Id_Encounter" style="text;html=1;align=center;verticalAlign=middle;resizable=0;points=[];autosize=1;strokeColor=none;fillColor=none;" vertex="1" parent="1">
          <mxGeometry x="503" y="590" width="90" height="30" as="geometry" />
        </mxCell>
        <mxCell id="owQzp86-0gMCmKCXw9nj-217" value="" style="ellipse;whiteSpace=wrap;html=1;aspect=fixed;fillColor=#FFFFFF;" vertex="1" parent="1">
          <mxGeometry x="678" y="516" width="14" height="14" as="geometry" />
        </mxCell>
        <mxCell id="owQzp86-0gMCmKCXw9nj-218" style="edgeStyle=orthogonalEdgeStyle;rounded=0;orthogonalLoop=1;jettySize=auto;html=1;exitX=1;exitY=0.5;exitDx=0;exitDy=0;entryX=0;entryY=0.5;entryDx=0;entryDy=0;endArrow=classic;startFill=0;endFill=1;" edge="1" parent="1" source="owQzp86-0gMCmKCXw9nj-225" target="owQzp86-0gMCmKCXw9nj-249">
          <mxGeometry relative="1" as="geometry" />
        </mxCell>
        <mxCell id="owQzp86-0gMCmKCXw9nj-219" style="edgeStyle=orthogonalEdgeStyle;rounded=0;orthogonalLoop=1;jettySize=auto;html=1;exitX=0.5;exitY=1;exitDx=0;exitDy=0;entryX=0.5;entryY=0;entryDx=0;entryDy=0;curved=1;endArrow=none;startFill=0;" edge="1" parent="1" source="owQzp86-0gMCmKCXw9nj-225" target="owQzp86-0gMCmKCXw9nj-252">
          <mxGeometry relative="1" as="geometry" />
        </mxCell>
        <mxCell id="owQzp86-0gMCmKCXw9nj-220" style="edgeStyle=orthogonalEdgeStyle;rounded=0;orthogonalLoop=1;jettySize=auto;html=1;exitX=0;exitY=0;exitDx=0;exitDy=0;entryX=1;entryY=1;entryDx=0;entryDy=0;strokeColor=default;curved=1;endArrow=none;startFill=0;" edge="1" parent="1" source="owQzp86-0gMCmKCXw9nj-225" target="owQzp86-0gMCmKCXw9nj-250">
          <mxGeometry relative="1" as="geometry" />
        </mxCell>
        <mxCell id="owQzp86-0gMCmKCXw9nj-221" style="edgeStyle=orthogonalEdgeStyle;rounded=0;orthogonalLoop=1;jettySize=auto;html=1;exitX=0.5;exitY=0;exitDx=0;exitDy=0;entryX=0.5;entryY=1;entryDx=0;entryDy=0;curved=1;endArrow=none;startFill=0;" edge="1" parent="1" source="owQzp86-0gMCmKCXw9nj-225" target="owQzp86-0gMCmKCXw9nj-260">
          <mxGeometry relative="1" as="geometry" />
        </mxCell>
        <mxCell id="owQzp86-0gMCmKCXw9nj-222" style="edgeStyle=orthogonalEdgeStyle;rounded=0;orthogonalLoop=1;jettySize=auto;html=1;exitX=1;exitY=0;exitDx=0;exitDy=0;entryX=0.5;entryY=1;entryDx=0;entryDy=0;curved=1;endArrow=none;startFill=0;" edge="1" parent="1" source="owQzp86-0gMCmKCXw9nj-225" target="owQzp86-0gMCmKCXw9nj-226">
          <mxGeometry relative="1" as="geometry" />
        </mxCell>
        <mxCell id="owQzp86-0gMCmKCXw9nj-223" style="edgeStyle=orthogonalEdgeStyle;rounded=0;orthogonalLoop=1;jettySize=auto;html=1;exitX=0.933;exitY=0.302;exitDx=0;exitDy=0;entryX=0.5;entryY=1;entryDx=0;entryDy=0;curved=1;endArrow=none;startFill=0;exitPerimeter=0;" edge="1" parent="1" source="owQzp86-0gMCmKCXw9nj-225" target="owQzp86-0gMCmKCXw9nj-263">
          <mxGeometry relative="1" as="geometry" />
        </mxCell>
        <mxCell id="owQzp86-0gMCmKCXw9nj-224" style="edgeStyle=orthogonalEdgeStyle;rounded=0;orthogonalLoop=1;jettySize=auto;html=1;exitX=1.014;exitY=0.588;exitDx=0;exitDy=0;entryX=0;entryY=0.5;entryDx=0;entryDy=0;curved=1;endArrow=none;startFill=0;exitPerimeter=0;" edge="1" parent="1" source="owQzp86-0gMCmKCXw9nj-225" target="owQzp86-0gMCmKCXw9nj-264">
          <mxGeometry relative="1" as="geometry" />
        </mxCell>
        <mxCell id="owQzp86-0gMCmKCXw9nj-225" value="" style="ellipse;whiteSpace=wrap;html=1;aspect=fixed;fillColor=#FFFFFF;" vertex="1" parent="1">
          <mxGeometry x="783" y="634" width="14" height="14" as="geometry" />
        </mxCell>
        <mxCell id="owQzp86-0gMCmKCXw9nj-226" value="" style="ellipse;whiteSpace=wrap;html=1;aspect=fixed;fillColor=#FFFFFF;" vertex="1" parent="1">
          <mxGeometry x="820" y="598" width="14" height="14" as="geometry" />
        </mxCell>
        <mxCell id="owQzp86-0gMCmKCXw9nj-227" style="edgeStyle=orthogonalEdgeStyle;rounded=0;orthogonalLoop=1;jettySize=auto;html=1;exitX=0;exitY=0;exitDx=0;exitDy=0;entryX=0.5;entryY=0;entryDx=0;entryDy=0;curved=1;endArrow=none;startFill=0;" edge="1" parent="1" source="owQzp86-0gMCmKCXw9nj-234" target="owQzp86-0gMCmKCXw9nj-287">
          <mxGeometry relative="1" as="geometry" />
        </mxCell>
        <mxCell id="owQzp86-0gMCmKCXw9nj-228" style="edgeStyle=orthogonalEdgeStyle;rounded=0;orthogonalLoop=1;jettySize=auto;html=1;exitX=0;exitY=0.5;exitDx=0;exitDy=0;entryX=0.5;entryY=0;entryDx=0;entryDy=0;curved=1;endArrow=none;startFill=0;" edge="1" parent="1" source="owQzp86-0gMCmKCXw9nj-234" target="owQzp86-0gMCmKCXw9nj-285">
          <mxGeometry relative="1" as="geometry" />
        </mxCell>
        <mxCell id="owQzp86-0gMCmKCXw9nj-229" style="edgeStyle=orthogonalEdgeStyle;rounded=0;orthogonalLoop=1;jettySize=auto;html=1;exitX=0;exitY=1;exitDx=0;exitDy=0;entryX=0.5;entryY=0;entryDx=0;entryDy=0;curved=1;endArrow=none;startFill=0;" edge="1" parent="1" source="owQzp86-0gMCmKCXw9nj-234" target="owQzp86-0gMCmKCXw9nj-286">
          <mxGeometry relative="1" as="geometry" />
        </mxCell>
        <mxCell id="owQzp86-0gMCmKCXw9nj-230" style="edgeStyle=orthogonalEdgeStyle;rounded=0;orthogonalLoop=1;jettySize=auto;html=1;exitX=1;exitY=1;exitDx=0;exitDy=0;curved=1;endArrow=none;startFill=0;" edge="1" parent="1" source="owQzp86-0gMCmKCXw9nj-234" target="owQzp86-0gMCmKCXw9nj-293">
          <mxGeometry relative="1" as="geometry" />
        </mxCell>
        <mxCell id="owQzp86-0gMCmKCXw9nj-231" style="edgeStyle=orthogonalEdgeStyle;rounded=0;orthogonalLoop=1;jettySize=auto;html=1;exitX=0.971;exitY=0.342;exitDx=0;exitDy=0;entryX=0;entryY=0.5;entryDx=0;entryDy=0;curved=1;exitPerimeter=0;endArrow=none;startFill=0;" edge="1" parent="1" source="owQzp86-0gMCmKCXw9nj-234" target="owQzp86-0gMCmKCXw9nj-300">
          <mxGeometry relative="1" as="geometry" />
        </mxCell>
        <mxCell id="owQzp86-0gMCmKCXw9nj-232" style="edgeStyle=orthogonalEdgeStyle;rounded=0;orthogonalLoop=1;jettySize=auto;html=1;exitX=1;exitY=0;exitDx=0;exitDy=0;entryX=0;entryY=1;entryDx=0;entryDy=0;curved=1;" edge="1" parent="1" source="owQzp86-0gMCmKCXw9nj-234" target="owQzp86-0gMCmKCXw9nj-249">
          <mxGeometry relative="1" as="geometry">
            <mxPoint x="1070" y="720" as="targetPoint" />
            <Array as="points">
              <mxPoint x="940" y="882" />
              <mxPoint x="940" y="646" />
            </Array>
          </mxGeometry>
        </mxCell>
        <mxCell id="owQzp86-0gMCmKCXw9nj-233" style="edgeStyle=orthogonalEdgeStyle;rounded=0;orthogonalLoop=1;jettySize=auto;html=1;entryX=0;entryY=1;entryDx=0;entryDy=0;curved=1;exitX=0.675;exitY=0.002;exitDx=0;exitDy=0;exitPerimeter=0;" edge="1" parent="1" source="owQzp86-0gMCmKCXw9nj-234" target="owQzp86-0gMCmKCXw9nj-225">
          <mxGeometry relative="1" as="geometry">
            <Array as="points">
              <mxPoint x="619" y="870" />
              <mxPoint x="690" y="870" />
              <mxPoint x="690" y="646" />
            </Array>
          </mxGeometry>
        </mxCell>
        <mxCell id="owQzp86-0gMCmKCXw9nj-234" value="" style="ellipse;whiteSpace=wrap;html=1;aspect=fixed;fillColor=#FFFFFF;" vertex="1" parent="1">
          <mxGeometry x="610" y="880" width="14" height="14" as="geometry" />
        </mxCell>
        <mxCell id="owQzp86-0gMCmKCXw9nj-235" style="edgeStyle=orthogonalEdgeStyle;rounded=0;orthogonalLoop=1;jettySize=auto;html=1;exitX=1;exitY=0;exitDx=0;exitDy=0;curved=1;endArrow=none;startFill=0;" edge="1" parent="1" source="owQzp86-0gMCmKCXw9nj-236" target="owQzp86-0gMCmKCXw9nj-241">
          <mxGeometry relative="1" as="geometry" />
        </mxCell>
        <mxCell id="owQzp86-0gMCmKCXw9nj-236" value="" style="ellipse;whiteSpace=wrap;html=1;aspect=fixed;fillColor=#FFFFFF;" vertex="1" parent="1">
          <mxGeometry x="580" y="404" width="14" height="14" as="geometry" />
        </mxCell>
        <mxCell id="owQzp86-0gMCmKCXw9nj-237" value="Code_Type_Encounter&lt;div&gt;&lt;br&gt;&lt;/div&gt;" style="text;html=1;align=center;verticalAlign=middle;resizable=0;points=[];autosize=1;strokeColor=none;fillColor=none;" vertex="1" parent="1">
          <mxGeometry x="424" y="391" width="150" height="40" as="geometry" />
        </mxCell>
        <mxCell id="owQzp86-0gMCmKCXw9nj-238" style="edgeStyle=orthogonalEdgeStyle;rounded=0;orthogonalLoop=1;jettySize=auto;html=1;exitX=0.5;exitY=1;exitDx=0;exitDy=0;entryX=0;entryY=0;entryDx=0;entryDy=0;curved=1;endArrow=none;startFill=0;" edge="1" parent="1" source="owQzp86-0gMCmKCXw9nj-239" target="owQzp86-0gMCmKCXw9nj-236">
          <mxGeometry relative="1" as="geometry" />
        </mxCell>
        <mxCell id="owQzp86-0gMCmKCXw9nj-239" value="" style="ellipse;whiteSpace=wrap;html=1;aspect=fixed;fillColor=#FFFFFF;" vertex="1" parent="1">
          <mxGeometry x="524" y="324" width="14" height="14" as="geometry" />
        </mxCell>
        <mxCell id="owQzp86-0gMCmKCXw9nj-240" value="Description" style="text;html=1;align=center;verticalAlign=middle;resizable=0;points=[];autosize=1;strokeColor=none;fillColor=none;" vertex="1" parent="1">
          <mxGeometry x="444" y="324" width="80" height="30" as="geometry" />
        </mxCell>
        <mxCell id="owQzp86-0gMCmKCXw9nj-241" value="" style="ellipse;whiteSpace=wrap;html=1;aspect=fixed;fillColor=#FFFFFF;" vertex="1" parent="1">
          <mxGeometry x="640" y="324" width="14" height="14" as="geometry" />
        </mxCell>
        <mxCell id="owQzp86-0gMCmKCXw9nj-242" value="Base_Cost" style="text;html=1;align=center;verticalAlign=middle;resizable=0;points=[];autosize=1;strokeColor=none;fillColor=none;" vertex="1" parent="1">
          <mxGeometry x="650" y="304" width="80" height="30" as="geometry" />
        </mxCell>
        <mxCell id="owQzp86-0gMCmKCXw9nj-243" value="Id_Class" style="text;html=1;align=center;verticalAlign=middle;resizable=0;points=[];autosize=1;strokeColor=none;fillColor=none;" vertex="1" parent="1">
          <mxGeometry x="610" y="508" width="70" height="30" as="geometry" />
        </mxCell>
        <mxCell id="owQzp86-0gMCmKCXw9nj-244" style="edgeStyle=orthogonalEdgeStyle;rounded=0;orthogonalLoop=1;jettySize=auto;html=1;exitX=0.5;exitY=1;exitDx=0;exitDy=0;entryX=0.5;entryY=0;entryDx=0;entryDy=0;endArrow=none;startFill=0;" edge="1" parent="1" source="owQzp86-0gMCmKCXw9nj-245" target="owQzp86-0gMCmKCXw9nj-217">
          <mxGeometry relative="1" as="geometry" />
        </mxCell>
        <mxCell id="owQzp86-0gMCmKCXw9nj-245" value="" style="ellipse;whiteSpace=wrap;html=1;aspect=fixed;fillColor=#FFFFFF;" vertex="1" parent="1">
          <mxGeometry x="678" y="440" width="14" height="14" as="geometry" />
        </mxCell>
        <mxCell id="owQzp86-0gMCmKCXw9nj-246" value="Name" style="text;html=1;align=center;verticalAlign=middle;resizable=0;points=[];autosize=1;strokeColor=none;fillColor=none;" vertex="1" parent="1">
          <mxGeometry x="618" y="410" width="60" height="30" as="geometry" />
        </mxCell>
        <mxCell id="owQzp86-0gMCmKCXw9nj-247" value="Id_Organization" style="text;html=1;align=center;verticalAlign=middle;resizable=0;points=[];autosize=1;strokeColor=none;fillColor=none;" vertex="1" parent="1">
          <mxGeometry x="675" y="615" width="110" height="30" as="geometry" />
        </mxCell>
        <mxCell id="owQzp86-0gMCmKCXw9nj-248" style="edgeStyle=orthogonalEdgeStyle;rounded=0;orthogonalLoop=1;jettySize=auto;html=1;exitX=1;exitY=0.5;exitDx=0;exitDy=0;entryX=0;entryY=0.5;entryDx=0;entryDy=0;endArrow=none;startFill=0;" edge="1" parent="1" source="owQzp86-0gMCmKCXw9nj-249" target="owQzp86-0gMCmKCXw9nj-273">
          <mxGeometry relative="1" as="geometry" />
        </mxCell>
        <mxCell id="owQzp86-0gMCmKCXw9nj-249" value="" style="ellipse;whiteSpace=wrap;html=1;aspect=fixed;fillColor=#FFFFFF;" vertex="1" parent="1">
          <mxGeometry x="960" y="634" width="14" height="14" as="geometry" />
        </mxCell>
        <mxCell id="owQzp86-0gMCmKCXw9nj-250" value="" style="ellipse;whiteSpace=wrap;html=1;aspect=fixed;fillColor=#FFFFFF;" vertex="1" parent="1">
          <mxGeometry x="760" y="606" width="14" height="14" as="geometry" />
        </mxCell>
        <mxCell id="owQzp86-0gMCmKCXw9nj-251" value="" style="ellipse;whiteSpace=wrap;html=1;aspect=fixed;fillColor=#FFFFFF;" vertex="1" parent="1">
          <mxGeometry x="797" y="710" width="14" height="14" as="geometry" />
        </mxCell>
        <mxCell id="owQzp86-0gMCmKCXw9nj-252" value="" style="ellipse;whiteSpace=wrap;html=1;aspect=fixed;fillColor=#FFFFFF;" vertex="1" parent="1">
          <mxGeometry x="760" y="710" width="14" height="14" as="geometry" />
        </mxCell>
        <mxCell id="owQzp86-0gMCmKCXw9nj-253" value="" style="ellipse;whiteSpace=wrap;html=1;aspect=fixed;fillColor=#FFFFFF;" vertex="1" parent="1">
          <mxGeometry x="860" y="700" width="14" height="14" as="geometry" />
        </mxCell>
        <mxCell id="owQzp86-0gMCmKCXw9nj-254" value="Name" style="text;html=1;align=center;verticalAlign=middle;resizable=0;points=[];autosize=1;strokeColor=none;fillColor=none;" vertex="1" parent="1">
          <mxGeometry x="710" y="700" width="60" height="30" as="geometry" />
        </mxCell>
        <mxCell id="owQzp86-0gMCmKCXw9nj-255" value="Address" style="text;strokeColor=none;align=center;fillColor=none;html=1;verticalAlign=middle;whiteSpace=wrap;rounded=0;" vertex="1" parent="1">
          <mxGeometry x="774" y="714" width="60" height="30" as="geometry" />
        </mxCell>
        <mxCell id="owQzp86-0gMCmKCXw9nj-256" style="edgeStyle=orthogonalEdgeStyle;rounded=0;orthogonalLoop=1;jettySize=auto;html=1;exitX=1;exitY=1;exitDx=0;exitDy=0;entryX=0.5;entryY=0;entryDx=0;entryDy=0;curved=1;endArrow=none;startFill=0;" edge="1" parent="1" source="owQzp86-0gMCmKCXw9nj-225" target="owQzp86-0gMCmKCXw9nj-251">
          <mxGeometry relative="1" as="geometry">
            <mxPoint x="827" y="648" as="sourcePoint" />
            <mxPoint x="804" y="710" as="targetPoint" />
            <Array as="points">
              <mxPoint x="795" y="648" />
              <mxPoint x="805" y="648" />
              <mxPoint x="805" y="710" />
            </Array>
          </mxGeometry>
        </mxCell>
        <mxCell id="owQzp86-0gMCmKCXw9nj-257" style="edgeStyle=orthogonalEdgeStyle;rounded=0;orthogonalLoop=1;jettySize=auto;html=1;exitX=0.934;exitY=0.725;exitDx=0;exitDy=0;curved=1;endArrow=none;startFill=0;exitPerimeter=0;" edge="1" parent="1" source="owQzp86-0gMCmKCXw9nj-225" target="owQzp86-0gMCmKCXw9nj-253">
          <mxGeometry relative="1" as="geometry">
            <mxPoint x="805" y="656" as="sourcePoint" />
            <mxPoint x="814" y="720" as="targetPoint" />
            <Array as="points">
              <mxPoint x="810" y="644" />
              <mxPoint x="810" y="650" />
              <mxPoint x="820" y="650" />
              <mxPoint x="820" y="707" />
            </Array>
          </mxGeometry>
        </mxCell>
        <mxCell id="owQzp86-0gMCmKCXw9nj-258" value="Zip_Code" style="text;html=1;align=center;verticalAlign=middle;resizable=0;points=[];autosize=1;strokeColor=none;fillColor=none;" vertex="1" parent="1">
          <mxGeometry x="820" y="708" width="80" height="30" as="geometry" />
        </mxCell>
        <mxCell id="owQzp86-0gMCmKCXw9nj-259" value="Lat" style="text;html=1;align=center;verticalAlign=middle;resizable=0;points=[];autosize=1;strokeColor=none;fillColor=none;" vertex="1" parent="1">
          <mxGeometry x="757" y="585" width="40" height="30" as="geometry" />
        </mxCell>
        <mxCell id="owQzp86-0gMCmKCXw9nj-260" value="" style="ellipse;whiteSpace=wrap;html=1;aspect=fixed;fillColor=#FFFFFF;" vertex="1" parent="1">
          <mxGeometry x="796" y="598" width="14" height="14" as="geometry" />
        </mxCell>
        <mxCell id="owQzp86-0gMCmKCXw9nj-261" value="Lon" style="text;html=1;align=center;verticalAlign=middle;resizable=0;points=[];autosize=1;strokeColor=none;fillColor=none;" vertex="1" parent="1">
          <mxGeometry x="783" y="576" width="40" height="30" as="geometry" />
        </mxCell>
        <mxCell id="owQzp86-0gMCmKCXw9nj-262" value="Phone" style="text;html=1;align=center;verticalAlign=middle;resizable=0;points=[];autosize=1;strokeColor=none;fillColor=none;" vertex="1" parent="1">
          <mxGeometry x="814" y="576" width="60" height="30" as="geometry" />
        </mxCell>
        <mxCell id="owQzp86-0gMCmKCXw9nj-263" value="" style="ellipse;whiteSpace=wrap;html=1;aspect=fixed;fillColor=#FFFFFF;" vertex="1" parent="1">
          <mxGeometry x="860" y="600" width="14" height="14" as="geometry" />
        </mxCell>
        <mxCell id="owQzp86-0gMCmKCXw9nj-264" value="" style="ellipse;whiteSpace=wrap;html=1;aspect=fixed;fillColor=#FFFFFF;" vertex="1" parent="1">
          <mxGeometry x="860" y="656" width="14" height="14" as="geometry" />
        </mxCell>
        <mxCell id="owQzp86-0gMCmKCXw9nj-265" value="Revenue" style="text;html=1;align=center;verticalAlign=middle;resizable=0;points=[];autosize=1;strokeColor=none;fillColor=none;" vertex="1" parent="1">
          <mxGeometry x="860" y="582" width="70" height="30" as="geometry" />
        </mxCell>
        <mxCell id="owQzp86-0gMCmKCXw9nj-266" value="Utilization" style="text;html=1;align=center;verticalAlign=middle;resizable=0;points=[];autosize=1;strokeColor=none;fillColor=none;" vertex="1" parent="1">
          <mxGeometry x="830" y="662" width="80" height="30" as="geometry" />
        </mxCell>
        <mxCell id="owQzp86-0gMCmKCXw9nj-267" value="Id_City" style="text;html=1;align=center;verticalAlign=middle;resizable=0;points=[];autosize=1;strokeColor=none;fillColor=none;" vertex="1" parent="1">
          <mxGeometry x="960" y="640" width="60" height="30" as="geometry" />
        </mxCell>
        <mxCell id="owQzp86-0gMCmKCXw9nj-268" style="edgeStyle=orthogonalEdgeStyle;rounded=0;orthogonalLoop=1;jettySize=auto;html=1;entryX=0.5;entryY=1;entryDx=0;entryDy=0;endArrow=none;startFill=0;" edge="1" parent="1" source="owQzp86-0gMCmKCXw9nj-269" target="owQzp86-0gMCmKCXw9nj-249">
          <mxGeometry relative="1" as="geometry" />
        </mxCell>
        <mxCell id="owQzp86-0gMCmKCXw9nj-269" value="" style="ellipse;whiteSpace=wrap;html=1;aspect=fixed;fillColor=#FFFFFF;" vertex="1" parent="1">
          <mxGeometry x="960" y="670" width="14" height="14" as="geometry" />
        </mxCell>
        <mxCell id="owQzp86-0gMCmKCXw9nj-270" value="Name" style="text;html=1;align=center;verticalAlign=middle;resizable=0;points=[];autosize=1;strokeColor=none;fillColor=none;" vertex="1" parent="1">
          <mxGeometry x="937" y="678" width="60" height="30" as="geometry" />
        </mxCell>
        <mxCell id="owQzp86-0gMCmKCXw9nj-271" style="edgeStyle=orthogonalEdgeStyle;rounded=0;orthogonalLoop=1;jettySize=auto;html=1;exitX=0.5;exitY=1;exitDx=0;exitDy=0;entryX=0.5;entryY=0;entryDx=0;entryDy=0;endArrow=none;startFill=0;" edge="1" parent="1" source="owQzp86-0gMCmKCXw9nj-273" target="owQzp86-0gMCmKCXw9nj-275">
          <mxGeometry relative="1" as="geometry" />
        </mxCell>
        <mxCell id="owQzp86-0gMCmKCXw9nj-272" style="edgeStyle=orthogonalEdgeStyle;rounded=0;orthogonalLoop=1;jettySize=auto;html=1;exitX=1;exitY=0.5;exitDx=0;exitDy=0;entryX=0;entryY=0.5;entryDx=0;entryDy=0;endArrow=none;startFill=0;" edge="1" parent="1" source="owQzp86-0gMCmKCXw9nj-273" target="owQzp86-0gMCmKCXw9nj-278">
          <mxGeometry relative="1" as="geometry" />
        </mxCell>
        <mxCell id="owQzp86-0gMCmKCXw9nj-273" value="" style="ellipse;whiteSpace=wrap;html=1;aspect=fixed;fillColor=#FFFFFF;" vertex="1" parent="1">
          <mxGeometry x="1040" y="634" width="14" height="14" as="geometry" />
        </mxCell>
        <mxCell id="owQzp86-0gMCmKCXw9nj-274" value="Id_County" style="text;html=1;align=center;verticalAlign=middle;resizable=0;points=[];autosize=1;strokeColor=none;fillColor=none;" vertex="1" parent="1">
          <mxGeometry x="1007" y="606" width="80" height="30" as="geometry" />
        </mxCell>
        <mxCell id="owQzp86-0gMCmKCXw9nj-275" value="" style="ellipse;whiteSpace=wrap;html=1;aspect=fixed;fillColor=#FFFFFF;" vertex="1" parent="1">
          <mxGeometry x="1040" y="670" width="14" height="14" as="geometry" />
        </mxCell>
        <mxCell id="owQzp86-0gMCmKCXw9nj-276" value="Name" style="text;html=1;align=center;verticalAlign=middle;resizable=0;points=[];autosize=1;strokeColor=none;fillColor=none;" vertex="1" parent="1">
          <mxGeometry x="1017" y="680" width="60" height="30" as="geometry" />
        </mxCell>
        <mxCell id="owQzp86-0gMCmKCXw9nj-277" style="edgeStyle=orthogonalEdgeStyle;rounded=0;orthogonalLoop=1;jettySize=auto;html=1;exitX=0.5;exitY=1;exitDx=0;exitDy=0;entryX=0.5;entryY=0;entryDx=0;entryDy=0;endArrow=none;startFill=0;" edge="1" parent="1" source="owQzp86-0gMCmKCXw9nj-278" target="owQzp86-0gMCmKCXw9nj-280">
          <mxGeometry relative="1" as="geometry" />
        </mxCell>
        <mxCell id="owQzp86-0gMCmKCXw9nj-278" value="" style="ellipse;whiteSpace=wrap;html=1;aspect=fixed;fillColor=#FFFFFF;" vertex="1" parent="1">
          <mxGeometry x="1110" y="634" width="14" height="14" as="geometry" />
        </mxCell>
        <mxCell id="owQzp86-0gMCmKCXw9nj-279" value="Id_State" style="text;html=1;align=center;verticalAlign=middle;resizable=0;points=[];autosize=1;strokeColor=none;fillColor=none;" vertex="1" parent="1">
          <mxGeometry x="1082" y="606" width="70" height="30" as="geometry" />
        </mxCell>
        <mxCell id="owQzp86-0gMCmKCXw9nj-280" value="" style="ellipse;whiteSpace=wrap;html=1;aspect=fixed;fillColor=#FFFFFF;" vertex="1" parent="1">
          <mxGeometry x="1110" y="670" width="14" height="14" as="geometry" />
        </mxCell>
        <mxCell id="owQzp86-0gMCmKCXw9nj-281" value="Name" style="text;html=1;align=center;verticalAlign=middle;resizable=0;points=[];autosize=1;strokeColor=none;fillColor=none;" vertex="1" parent="1">
          <mxGeometry x="1087" y="678" width="60" height="30" as="geometry" />
        </mxCell>
        <mxCell id="owQzp86-0gMCmKCXw9nj-282" value="Id_Provider" style="text;html=1;align=center;verticalAlign=middle;resizable=0;points=[];autosize=1;strokeColor=none;fillColor=none;" vertex="1" parent="1">
          <mxGeometry x="534" y="850" width="80" height="30" as="geometry" />
        </mxCell>
        <mxCell id="owQzp86-0gMCmKCXw9nj-283" style="edgeStyle=orthogonalEdgeStyle;rounded=0;orthogonalLoop=1;jettySize=auto;html=1;exitX=0.5;exitY=0;exitDx=0;exitDy=0;entryX=0.5;entryY=1;entryDx=0;entryDy=0;curved=1;endArrow=none;startFill=0;" edge="1" parent="1" source="owQzp86-0gMCmKCXw9nj-284" target="owQzp86-0gMCmKCXw9nj-234">
          <mxGeometry relative="1" as="geometry" />
        </mxCell>
        <mxCell id="owQzp86-0gMCmKCXw9nj-284" value="" style="ellipse;whiteSpace=wrap;html=1;aspect=fixed;fillColor=#FFFFFF;" vertex="1" parent="1">
          <mxGeometry x="577" y="946" width="14" height="14" as="geometry" />
        </mxCell>
        <mxCell id="owQzp86-0gMCmKCXw9nj-285" value="" style="ellipse;whiteSpace=wrap;html=1;aspect=fixed;fillColor=#FFFFFF;" vertex="1" parent="1">
          <mxGeometry x="520" y="932" width="14" height="14" as="geometry" />
        </mxCell>
        <mxCell id="owQzp86-0gMCmKCXw9nj-286" value="" style="ellipse;whiteSpace=wrap;html=1;aspect=fixed;fillColor=#FFFFFF;" vertex="1" parent="1">
          <mxGeometry x="546" y="946" width="14" height="14" as="geometry" />
        </mxCell>
        <mxCell id="owQzp86-0gMCmKCXw9nj-287" value="" style="ellipse;whiteSpace=wrap;html=1;aspect=fixed;fillColor=#FFFFFF;" vertex="1" parent="1">
          <mxGeometry x="504" y="910" width="14" height="14" as="geometry" />
        </mxCell>
        <mxCell id="owQzp86-0gMCmKCXw9nj-288" value="First_Name" style="text;html=1;align=center;verticalAlign=middle;resizable=0;points=[];autosize=1;strokeColor=none;fillColor=none;" vertex="1" parent="1">
          <mxGeometry x="424" y="902" width="90" height="30" as="geometry" />
        </mxCell>
        <mxCell id="owQzp86-0gMCmKCXw9nj-289" value="Last_Name" style="text;html=1;align=center;verticalAlign=middle;resizable=0;points=[];autosize=1;strokeColor=none;fillColor=none;" vertex="1" parent="1">
          <mxGeometry x="444" y="924" width="80" height="30" as="geometry" />
        </mxCell>
        <mxCell id="owQzp86-0gMCmKCXw9nj-290" value="Gender" style="text;html=1;align=center;verticalAlign=middle;resizable=0;points=[];autosize=1;strokeColor=none;fillColor=none;" vertex="1" parent="1">
          <mxGeometry x="504" y="954" width="60" height="30" as="geometry" />
        </mxCell>
        <mxCell id="owQzp86-0gMCmKCXw9nj-291" value="Address" style="text;html=1;align=center;verticalAlign=middle;resizable=0;points=[];autosize=1;strokeColor=none;fillColor=none;" vertex="1" parent="1">
          <mxGeometry x="555" y="958" width="70" height="30" as="geometry" />
        </mxCell>
        <mxCell id="owQzp86-0gMCmKCXw9nj-292" value="Zip_Code" style="text;html=1;align=center;verticalAlign=middle;resizable=0;points=[];autosize=1;strokeColor=none;fillColor=none;" vertex="1" parent="1">
          <mxGeometry x="621" y="946" width="80" height="30" as="geometry" />
        </mxCell>
        <mxCell id="owQzp86-0gMCmKCXw9nj-293" value="" style="ellipse;whiteSpace=wrap;html=1;aspect=fixed;fillColor=#FFFFFF;" vertex="1" parent="1">
          <mxGeometry x="640" y="940" width="14" height="14" as="geometry" />
        </mxCell>
        <mxCell id="owQzp86-0gMCmKCXw9nj-294" value="Lon" style="text;html=1;align=center;verticalAlign=middle;resizable=0;points=[];autosize=1;strokeColor=none;fillColor=none;" vertex="1" parent="1">
          <mxGeometry x="715" y="910" width="40" height="30" as="geometry" />
        </mxCell>
        <mxCell id="owQzp86-0gMCmKCXw9nj-295" value="Lat" style="text;html=1;align=center;verticalAlign=middle;resizable=0;points=[];autosize=1;strokeColor=none;fillColor=none;" vertex="1" parent="1">
          <mxGeometry x="706" y="932" width="40" height="30" as="geometry" />
        </mxCell>
        <mxCell id="owQzp86-0gMCmKCXw9nj-296" value="" style="ellipse;whiteSpace=wrap;html=1;aspect=fixed;fillColor=#FFFFFF;" vertex="1" parent="1">
          <mxGeometry x="701" y="940" width="14" height="14" as="geometry" />
        </mxCell>
        <mxCell id="owQzp86-0gMCmKCXw9nj-297" value="" style="ellipse;whiteSpace=wrap;html=1;aspect=fixed;fillColor=#FFFFFF;" vertex="1" parent="1">
          <mxGeometry x="706" y="918" width="14" height="14" as="geometry" />
        </mxCell>
        <mxCell id="owQzp86-0gMCmKCXw9nj-298" style="edgeStyle=orthogonalEdgeStyle;rounded=0;orthogonalLoop=1;jettySize=auto;html=1;exitX=1;exitY=0.5;exitDx=0;exitDy=0;entryX=0;entryY=0.5;entryDx=0;entryDy=0;endArrow=none;startFill=0;curved=1;" edge="1" parent="1" source="owQzp86-0gMCmKCXw9nj-234" target="owQzp86-0gMCmKCXw9nj-297">
          <mxGeometry relative="1" as="geometry" />
        </mxCell>
        <mxCell id="owQzp86-0gMCmKCXw9nj-299" style="edgeStyle=orthogonalEdgeStyle;rounded=0;orthogonalLoop=1;jettySize=auto;html=1;exitX=0;exitY=0;exitDx=0;exitDy=0;entryX=0.981;entryY=0.726;entryDx=0;entryDy=0;entryPerimeter=0;endArrow=none;startFill=0;curved=1;" edge="1" parent="1" source="owQzp86-0gMCmKCXw9nj-296" target="owQzp86-0gMCmKCXw9nj-234">
          <mxGeometry relative="1" as="geometry" />
        </mxCell>
        <mxCell id="owQzp86-0gMCmKCXw9nj-300" value="" style="ellipse;whiteSpace=wrap;html=1;aspect=fixed;fillColor=#FFFFFF;" vertex="1" parent="1">
          <mxGeometry x="706" y="894" width="14" height="14" as="geometry" />
        </mxCell>
        <mxCell id="owQzp86-0gMCmKCXw9nj-301" value="Utilization" style="text;html=1;align=center;verticalAlign=middle;resizable=0;points=[];autosize=1;strokeColor=none;fillColor=none;" vertex="1" parent="1">
          <mxGeometry x="710" y="886" width="80" height="30" as="geometry" />
        </mxCell>
        <mxCell id="owQzp86-0gMCmKCXw9nj-302" style="edgeStyle=orthogonalEdgeStyle;rounded=0;orthogonalLoop=1;jettySize=auto;html=1;exitX=0.924;exitY=0.747;exitDx=0;exitDy=0;entryX=0.5;entryY=0;entryDx=0;entryDy=0;curved=1;exitPerimeter=0;" edge="1" parent="1" source="owQzp86-0gMCmKCXw9nj-318" target="owQzp86-0gMCmKCXw9nj-249">
          <mxGeometry relative="1" as="geometry" />
        </mxCell>
        <mxCell id="owQzp86-0gMCmKCXw9nj-303" style="edgeStyle=orthogonalEdgeStyle;rounded=0;orthogonalLoop=1;jettySize=auto;html=1;exitX=0.355;exitY=0.017;exitDx=0;exitDy=0;entryX=0.5;entryY=1;entryDx=0;entryDy=0;curved=1;endArrow=none;startFill=0;exitPerimeter=0;" edge="1" parent="1" source="owQzp86-0gMCmKCXw9nj-318" target="owQzp86-0gMCmKCXw9nj-323">
          <mxGeometry relative="1" as="geometry" />
        </mxCell>
        <mxCell id="owQzp86-0gMCmKCXw9nj-304" style="edgeStyle=orthogonalEdgeStyle;rounded=0;orthogonalLoop=1;jettySize=auto;html=1;exitX=0.5;exitY=0;exitDx=0;exitDy=0;entryX=0.5;entryY=1;entryDx=0;entryDy=0;curved=1;endArrow=none;startFill=0;" edge="1" parent="1" source="owQzp86-0gMCmKCXw9nj-318" target="owQzp86-0gMCmKCXw9nj-321">
          <mxGeometry relative="1" as="geometry" />
        </mxCell>
        <mxCell id="owQzp86-0gMCmKCXw9nj-305" style="edgeStyle=orthogonalEdgeStyle;rounded=0;orthogonalLoop=1;jettySize=auto;html=1;exitX=0.673;exitY=0.055;exitDx=0;exitDy=0;entryX=0.5;entryY=1;entryDx=0;entryDy=0;curved=1;exitPerimeter=0;endArrow=none;startFill=0;" edge="1" parent="1" source="owQzp86-0gMCmKCXw9nj-318" target="owQzp86-0gMCmKCXw9nj-322">
          <mxGeometry relative="1" as="geometry">
            <mxPoint x="920" y="190" as="targetPoint" />
          </mxGeometry>
        </mxCell>
        <mxCell id="owQzp86-0gMCmKCXw9nj-306" style="edgeStyle=orthogonalEdgeStyle;rounded=0;orthogonalLoop=1;jettySize=auto;html=1;exitX=0.651;exitY=0.036;exitDx=0;exitDy=0;entryX=0.5;entryY=1;entryDx=0;entryDy=0;curved=1;exitPerimeter=0;endArrow=none;startFill=0;" edge="1" parent="1" source="owQzp86-0gMCmKCXw9nj-318" target="owQzp86-0gMCmKCXw9nj-320">
          <mxGeometry relative="1" as="geometry">
            <mxPoint x="1000" y="140" as="targetPoint" />
            <Array as="points">
              <mxPoint x="910" y="400" />
              <mxPoint x="910" y="240" />
              <mxPoint x="1000" y="240" />
              <mxPoint x="1000" y="80" />
            </Array>
          </mxGeometry>
        </mxCell>
        <mxCell id="owQzp86-0gMCmKCXw9nj-307" style="edgeStyle=orthogonalEdgeStyle;rounded=0;orthogonalLoop=1;jettySize=auto;html=1;exitX=0.978;exitY=0.364;exitDx=0;exitDy=0;entryX=0.5;entryY=1;entryDx=0;entryDy=0;exitPerimeter=0;curved=1;endArrow=none;startFill=0;" edge="1" parent="1" source="owQzp86-0gMCmKCXw9nj-318" target="owQzp86-0gMCmKCXw9nj-346">
          <mxGeometry relative="1" as="geometry">
            <mxPoint x="1100.655737704918" y="406.95081967213116" as="targetPoint" />
            <Array as="points">
              <mxPoint x="1097" y="405" />
            </Array>
          </mxGeometry>
        </mxCell>
        <mxCell id="owQzp86-0gMCmKCXw9nj-308" style="edgeStyle=orthogonalEdgeStyle;rounded=0;orthogonalLoop=1;jettySize=auto;html=1;exitX=1;exitY=0.5;exitDx=0;exitDy=0;entryX=0;entryY=0.5;entryDx=0;entryDy=0;curved=1;endArrow=none;startFill=0;" edge="1" parent="1" source="owQzp86-0gMCmKCXw9nj-318" target="owQzp86-0gMCmKCXw9nj-347">
          <mxGeometry relative="1" as="geometry">
            <Array as="points">
              <mxPoint x="1080" y="407" />
              <mxPoint x="1080" y="347" />
            </Array>
          </mxGeometry>
        </mxCell>
        <mxCell id="owQzp86-0gMCmKCXw9nj-309" style="edgeStyle=orthogonalEdgeStyle;rounded=0;orthogonalLoop=1;jettySize=auto;html=1;exitX=1;exitY=0.5;exitDx=0;exitDy=0;entryX=0;entryY=0.5;entryDx=0;entryDy=0;curved=1;endArrow=none;startFill=0;" edge="1" parent="1" source="owQzp86-0gMCmKCXw9nj-318" target="owQzp86-0gMCmKCXw9nj-348">
          <mxGeometry relative="1" as="geometry">
            <Array as="points">
              <mxPoint x="1060" y="407" />
              <mxPoint x="1060" y="393" />
            </Array>
          </mxGeometry>
        </mxCell>
        <mxCell id="owQzp86-0gMCmKCXw9nj-310" style="edgeStyle=orthogonalEdgeStyle;rounded=0;orthogonalLoop=1;jettySize=auto;html=1;exitX=0.976;exitY=0.669;exitDx=0;exitDy=0;entryX=0;entryY=0.5;entryDx=0;entryDy=0;curved=1;exitPerimeter=0;endArrow=none;startFill=0;" edge="1" parent="1" source="owQzp86-0gMCmKCXw9nj-318" target="owQzp86-0gMCmKCXw9nj-349">
          <mxGeometry relative="1" as="geometry" />
        </mxCell>
        <mxCell id="owQzp86-0gMCmKCXw9nj-311" style="edgeStyle=orthogonalEdgeStyle;rounded=0;orthogonalLoop=1;jettySize=auto;html=1;exitX=1.013;exitY=0.249;exitDx=0;exitDy=0;entryX=0.5;entryY=0;entryDx=0;entryDy=0;curved=1;endArrow=none;startFill=0;exitPerimeter=0;" edge="1" parent="1" source="owQzp86-0gMCmKCXw9nj-319" target="owQzp86-0gMCmKCXw9nj-357">
          <mxGeometry relative="1" as="geometry">
            <Array as="points">
              <mxPoint x="857" y="414" />
              <mxPoint x="857" y="447" />
              <mxPoint x="830" y="447" />
            </Array>
          </mxGeometry>
        </mxCell>
        <mxCell id="owQzp86-0gMCmKCXw9nj-312" style="edgeStyle=orthogonalEdgeStyle;rounded=0;orthogonalLoop=1;jettySize=auto;html=1;exitX=0;exitY=1;exitDx=0;exitDy=0;entryX=0.5;entryY=0;entryDx=0;entryDy=0;curved=1;endArrow=none;startFill=0;" edge="1" parent="1" source="owQzp86-0gMCmKCXw9nj-318" target="owQzp86-0gMCmKCXw9nj-356">
          <mxGeometry relative="1" as="geometry">
            <Array as="points">
              <mxPoint x="852" y="430" />
              <mxPoint x="810" y="430" />
            </Array>
          </mxGeometry>
        </mxCell>
        <mxCell id="owQzp86-0gMCmKCXw9nj-313" style="edgeStyle=orthogonalEdgeStyle;rounded=0;orthogonalLoop=1;jettySize=auto;html=1;exitX=0.7;exitY=0.961;exitDx=0;exitDy=0;entryX=0.5;entryY=0;entryDx=0;entryDy=0;exitPerimeter=0;curved=1;endArrow=none;startFill=0;" edge="1" parent="1" source="owQzp86-0gMCmKCXw9nj-318" target="owQzp86-0gMCmKCXw9nj-359">
          <mxGeometry relative="1" as="geometry">
            <Array as="points">
              <mxPoint x="860" y="447" />
              <mxPoint x="867" y="447" />
            </Array>
          </mxGeometry>
        </mxCell>
        <mxCell id="owQzp86-0gMCmKCXw9nj-314" style="edgeStyle=orthogonalEdgeStyle;rounded=0;orthogonalLoop=1;jettySize=auto;html=1;exitX=0.797;exitY=0.928;exitDx=0;exitDy=0;entryX=0.5;entryY=0;entryDx=0;entryDy=0;curved=1;endArrow=none;startFill=0;exitPerimeter=0;" edge="1" parent="1">
          <mxGeometry relative="1" as="geometry">
            <mxPoint x="859.998" y="412.992" as="sourcePoint" />
            <mxPoint x="889.84" y="523.9999999999999" as="targetPoint" />
          </mxGeometry>
        </mxCell>
        <mxCell id="owQzp86-0gMCmKCXw9nj-315" style="edgeStyle=orthogonalEdgeStyle;rounded=0;orthogonalLoop=1;jettySize=auto;html=1;exitX=1;exitY=1;exitDx=0;exitDy=0;entryX=0.5;entryY=0;entryDx=0;entryDy=0;curved=1;endArrow=none;startFill=0;" edge="1" parent="1" source="owQzp86-0gMCmKCXw9nj-318" target="owQzp86-0gMCmKCXw9nj-361">
          <mxGeometry relative="1" as="geometry" />
        </mxCell>
        <mxCell id="owQzp86-0gMCmKCXw9nj-316" style="edgeStyle=orthogonalEdgeStyle;rounded=0;orthogonalLoop=1;jettySize=auto;html=1;exitX=1;exitY=0.5;exitDx=0;exitDy=0;entryX=0;entryY=0.5;entryDx=0;entryDy=0;curved=1;endArrow=none;startFill=0;" edge="1" parent="1" source="owQzp86-0gMCmKCXw9nj-318" target="owQzp86-0gMCmKCXw9nj-365">
          <mxGeometry relative="1" as="geometry" />
        </mxCell>
        <mxCell id="owQzp86-0gMCmKCXw9nj-317" style="edgeStyle=orthogonalEdgeStyle;rounded=0;orthogonalLoop=1;jettySize=auto;html=1;exitX=1;exitY=0.5;exitDx=0;exitDy=0;entryX=0;entryY=0.5;entryDx=0;entryDy=0;curved=1;endArrow=none;startFill=0;" edge="1" parent="1" source="owQzp86-0gMCmKCXw9nj-318" target="owQzp86-0gMCmKCXw9nj-368">
          <mxGeometry relative="1" as="geometry">
            <mxPoint x="1000" y="510" as="targetPoint" />
          </mxGeometry>
        </mxCell>
        <mxCell id="owQzp86-0gMCmKCXw9nj-318" value="" style="ellipse;whiteSpace=wrap;html=1;aspect=fixed;fillColor=#FFFFFF;" vertex="1" parent="1">
          <mxGeometry x="850" y="400" width="14" height="14" as="geometry" />
        </mxCell>
        <mxCell id="owQzp86-0gMCmKCXw9nj-319" value="Id_Patient" style="text;html=1;align=center;verticalAlign=middle;resizable=0;points=[];autosize=1;strokeColor=none;fillColor=none;" vertex="1" parent="1">
          <mxGeometry x="774" y="406" width="80" height="30" as="geometry" />
        </mxCell>
        <mxCell id="owQzp86-0gMCmKCXw9nj-320" value="" style="ellipse;whiteSpace=wrap;html=1;aspect=fixed;fillColor=#FFFFFF;" vertex="1" parent="1">
          <mxGeometry x="983" y="66" width="14" height="14" as="geometry" />
        </mxCell>
        <mxCell id="owQzp86-0gMCmKCXw9nj-321" value="" style="ellipse;whiteSpace=wrap;html=1;aspect=fixed;fillColor=#FFFFFF;" vertex="1" parent="1">
          <mxGeometry x="860" y="170" width="14" height="14" as="geometry" />
        </mxCell>
        <mxCell id="owQzp86-0gMCmKCXw9nj-322" value="" style="ellipse;whiteSpace=wrap;html=1;aspect=fixed;fillColor=#FFFFFF;" vertex="1" parent="1">
          <mxGeometry x="916" y="170" width="14" height="14" as="geometry" />
        </mxCell>
        <mxCell id="owQzp86-0gMCmKCXw9nj-323" value="" style="ellipse;whiteSpace=wrap;html=1;aspect=fixed;fillColor=#FFFFFF;" vertex="1" parent="1">
          <mxGeometry x="820" y="170" width="14" height="14" as="geometry" />
        </mxCell>
        <mxCell id="owQzp86-0gMCmKCXw9nj-324" value="Last_Name" style="text;html=1;align=center;verticalAlign=middle;resizable=0;points=[];autosize=1;strokeColor=none;fillColor=none;" vertex="1" parent="1">
          <mxGeometry x="764" y="140" width="80" height="30" as="geometry" />
        </mxCell>
        <mxCell id="owQzp86-0gMCmKCXw9nj-325" value="Gender" style="text;html=1;align=center;verticalAlign=middle;resizable=0;points=[];autosize=1;strokeColor=none;fillColor=none;" vertex="1" parent="1">
          <mxGeometry x="914" y="140" width="60" height="30" as="geometry" />
        </mxCell>
        <mxCell id="owQzp86-0gMCmKCXw9nj-326" value="First_Name" style="text;html=1;align=center;verticalAlign=middle;resizable=0;points=[];autosize=1;strokeColor=none;fillColor=none;" vertex="1" parent="1">
          <mxGeometry x="834" y="140" width="90" height="30" as="geometry" />
        </mxCell>
        <mxCell id="owQzp86-0gMCmKCXw9nj-327" value="" style="ellipse;whiteSpace=wrap;html=1;aspect=fixed;fillColor=#FFFFFF;" vertex="1" parent="1">
          <mxGeometry x="1077" y="66" width="14" height="14" as="geometry" />
        </mxCell>
        <mxCell id="owQzp86-0gMCmKCXw9nj-328" value="" style="ellipse;whiteSpace=wrap;html=1;aspect=fixed;fillColor=#FFFFFF;" vertex="1" parent="1">
          <mxGeometry x="1026" y="66" width="14" height="14" as="geometry" />
        </mxCell>
        <mxCell id="owQzp86-0gMCmKCXw9nj-329" value="" style="ellipse;whiteSpace=wrap;html=1;aspect=fixed;fillColor=#FFFFFF;" vertex="1" parent="1">
          <mxGeometry x="1120" y="66" width="14" height="14" as="geometry" />
        </mxCell>
        <mxCell id="owQzp86-0gMCmKCXw9nj-330" value="Birthdate" style="text;html=1;align=center;verticalAlign=middle;resizable=0;points=[];autosize=1;strokeColor=none;fillColor=none;" vertex="1" parent="1">
          <mxGeometry x="930" y="40" width="70" height="30" as="geometry" />
        </mxCell>
        <mxCell id="owQzp86-0gMCmKCXw9nj-331" value="Deathdate" style="text;html=1;align=center;verticalAlign=middle;resizable=0;points=[];autosize=1;strokeColor=none;fillColor=none;" vertex="1" parent="1">
          <mxGeometry x="993" y="40" width="80" height="30" as="geometry" />
        </mxCell>
        <mxCell id="owQzp86-0gMCmKCXw9nj-332" value="SSN" style="text;html=1;align=center;verticalAlign=middle;resizable=0;points=[];autosize=1;strokeColor=none;fillColor=none;" vertex="1" parent="1">
          <mxGeometry x="1060" y="40" width="50" height="30" as="geometry" />
        </mxCell>
        <mxCell id="owQzp86-0gMCmKCXw9nj-333" value="Drivers" style="text;html=1;align=center;verticalAlign=middle;resizable=0;points=[];autosize=1;strokeColor=none;fillColor=none;" vertex="1" parent="1">
          <mxGeometry x="1100" y="38" width="60" height="30" as="geometry" />
        </mxCell>
        <mxCell id="owQzp86-0gMCmKCXw9nj-334" style="edgeStyle=orthogonalEdgeStyle;rounded=0;orthogonalLoop=1;jettySize=auto;html=1;exitX=1;exitY=0;exitDx=0;exitDy=0;entryX=0.5;entryY=1;entryDx=0;entryDy=0;curved=1;endArrow=none;startFill=0;" edge="1" parent="1" source="owQzp86-0gMCmKCXw9nj-318" target="owQzp86-0gMCmKCXw9nj-328">
          <mxGeometry relative="1" as="geometry">
            <mxPoint x="1000" y="90" as="targetPoint" />
            <mxPoint x="871" y="411" as="sourcePoint" />
            <Array as="points">
              <mxPoint x="862" y="400" />
              <mxPoint x="920" y="400" />
              <mxPoint x="920" y="250" />
              <mxPoint x="1030" y="250" />
              <mxPoint x="1030" y="80" />
            </Array>
          </mxGeometry>
        </mxCell>
        <mxCell id="owQzp86-0gMCmKCXw9nj-335" style="edgeStyle=orthogonalEdgeStyle;rounded=0;orthogonalLoop=1;jettySize=auto;html=1;exitX=1;exitY=0;exitDx=0;exitDy=0;entryX=0.5;entryY=1;entryDx=0;entryDy=0;curved=1;endArrow=none;startFill=0;" edge="1" parent="1" source="owQzp86-0gMCmKCXw9nj-318" target="owQzp86-0gMCmKCXw9nj-327">
          <mxGeometry relative="1" as="geometry">
            <mxPoint x="1103" y="97" as="targetPoint" />
            <mxPoint x="974" y="418" as="sourcePoint" />
            <Array as="points">
              <mxPoint x="1023" y="402" />
              <mxPoint x="1023" y="257" />
              <mxPoint x="1080" y="257" />
              <mxPoint x="1080" y="80" />
            </Array>
          </mxGeometry>
        </mxCell>
        <mxCell id="owQzp86-0gMCmKCXw9nj-336" style="edgeStyle=orthogonalEdgeStyle;rounded=0;orthogonalLoop=1;jettySize=auto;html=1;exitX=0.947;exitY=0.277;exitDx=0;exitDy=0;entryX=0.5;entryY=1;entryDx=0;entryDy=0;curved=1;endArrow=none;startFill=0;exitPerimeter=0;" edge="1" parent="1" source="owQzp86-0gMCmKCXw9nj-318" target="owQzp86-0gMCmKCXw9nj-329">
          <mxGeometry relative="1" as="geometry">
            <mxPoint x="1094" y="90" as="targetPoint" />
            <mxPoint x="872" y="412" as="sourcePoint" />
            <Array as="points">
              <mxPoint x="863" y="400" />
              <mxPoint x="1030" y="400" />
              <mxPoint x="1030" y="267" />
              <mxPoint x="1090" y="267" />
              <mxPoint x="1090" y="90" />
              <mxPoint x="1127" y="90" />
            </Array>
          </mxGeometry>
        </mxCell>
        <mxCell id="owQzp86-0gMCmKCXw9nj-337" style="edgeStyle=orthogonalEdgeStyle;rounded=0;orthogonalLoop=1;jettySize=auto;html=1;exitX=0.5;exitY=1;exitDx=0;exitDy=0;entryX=0.234;entryY=0.075;entryDx=0;entryDy=0;endArrow=none;startFill=0;curved=1;entryPerimeter=0;" edge="1" parent="1" source="owQzp86-0gMCmKCXw9nj-338" target="owQzp86-0gMCmKCXw9nj-318">
          <mxGeometry relative="1" as="geometry">
            <Array as="points">
              <mxPoint x="789" y="302" />
              <mxPoint x="830" y="302" />
              <mxPoint x="830" y="390" />
              <mxPoint x="853" y="390" />
            </Array>
          </mxGeometry>
        </mxCell>
        <mxCell id="owQzp86-0gMCmKCXw9nj-338" value="" style="ellipse;whiteSpace=wrap;html=1;aspect=fixed;fillColor=#FFFFFF;" vertex="1" parent="1">
          <mxGeometry x="782" y="190" width="14" height="14" as="geometry" />
        </mxCell>
        <mxCell id="owQzp86-0gMCmKCXw9nj-339" style="edgeStyle=orthogonalEdgeStyle;rounded=0;orthogonalLoop=1;jettySize=auto;html=1;exitX=1;exitY=1;exitDx=0;exitDy=0;entryX=0;entryY=0;entryDx=0;entryDy=0;curved=1;endArrow=none;startFill=0;" edge="1" parent="1" source="owQzp86-0gMCmKCXw9nj-340" target="owQzp86-0gMCmKCXw9nj-318">
          <mxGeometry relative="1" as="geometry">
            <Array as="points">
              <mxPoint x="762" y="252" />
              <mxPoint x="790" y="252" />
              <mxPoint x="790" y="390" />
              <mxPoint x="852" y="390" />
            </Array>
          </mxGeometry>
        </mxCell>
        <mxCell id="owQzp86-0gMCmKCXw9nj-340" value="" style="ellipse;whiteSpace=wrap;html=1;aspect=fixed;fillColor=#FFFFFF;" vertex="1" parent="1">
          <mxGeometry x="750" y="212" width="14" height="14" as="geometry" />
        </mxCell>
        <mxCell id="owQzp86-0gMCmKCXw9nj-341" value="Passport" style="text;html=1;align=center;verticalAlign=middle;resizable=0;points=[];autosize=1;strokeColor=none;fillColor=none;" vertex="1" parent="1">
          <mxGeometry x="720" y="182" width="70" height="30" as="geometry" />
        </mxCell>
        <mxCell id="owQzp86-0gMCmKCXw9nj-342" value="Prefix" style="text;html=1;align=center;verticalAlign=middle;resizable=0;points=[];autosize=1;strokeColor=none;fillColor=none;" vertex="1" parent="1">
          <mxGeometry x="707" y="204" width="50" height="30" as="geometry" />
        </mxCell>
        <mxCell id="owQzp86-0gMCmKCXw9nj-343" style="edgeStyle=orthogonalEdgeStyle;rounded=0;orthogonalLoop=1;jettySize=auto;html=1;exitX=1;exitY=1;exitDx=0;exitDy=0;entryX=0;entryY=0;entryDx=0;entryDy=0;curved=1;endArrow=none;startFill=0;" edge="1" parent="1" source="owQzp86-0gMCmKCXw9nj-344" target="owQzp86-0gMCmKCXw9nj-318">
          <mxGeometry relative="1" as="geometry">
            <mxPoint x="850" y="400" as="targetPoint" />
            <Array as="points">
              <mxPoint x="770" y="262" />
              <mxPoint x="770" y="402" />
            </Array>
          </mxGeometry>
        </mxCell>
        <mxCell id="owQzp86-0gMCmKCXw9nj-344" value="" style="ellipse;whiteSpace=wrap;html=1;aspect=fixed;fillColor=#FFFFFF;" vertex="1" parent="1">
          <mxGeometry x="743" y="250" width="14" height="14" as="geometry" />
        </mxCell>
        <mxCell id="owQzp86-0gMCmKCXw9nj-345" value="Suffix" style="text;html=1;align=center;verticalAlign=middle;resizable=0;points=[];autosize=1;strokeColor=none;fillColor=none;" vertex="1" parent="1">
          <mxGeometry x="701" y="234" width="50" height="30" as="geometry" />
        </mxCell>
        <mxCell id="owQzp86-0gMCmKCXw9nj-346" value="" style="ellipse;whiteSpace=wrap;html=1;aspect=fixed;fillColor=#FFFFFF;" vertex="1" parent="1">
          <mxGeometry x="1090" y="300" width="14" height="14" as="geometry" />
        </mxCell>
        <mxCell id="owQzp86-0gMCmKCXw9nj-347" value="" style="ellipse;whiteSpace=wrap;html=1;aspect=fixed;fillColor=#FFFFFF;" vertex="1" parent="1">
          <mxGeometry x="1120" y="340" width="14" height="14" as="geometry" />
        </mxCell>
        <mxCell id="owQzp86-0gMCmKCXw9nj-348" value="" style="ellipse;whiteSpace=wrap;html=1;aspect=fixed;fillColor=#FFFFFF;" vertex="1" parent="1">
          <mxGeometry x="1120" y="386" width="14" height="14" as="geometry" />
        </mxCell>
        <mxCell id="owQzp86-0gMCmKCXw9nj-349" value="" style="ellipse;whiteSpace=wrap;html=1;aspect=fixed;fillColor=#FFFFFF;" vertex="1" parent="1">
          <mxGeometry x="1082" y="414" width="14" height="14" as="geometry" />
        </mxCell>
        <mxCell id="owQzp86-0gMCmKCXw9nj-350" value="Maiden" style="text;html=1;align=center;verticalAlign=middle;resizable=0;points=[];autosize=1;strokeColor=none;fillColor=none;" vertex="1" parent="1">
          <mxGeometry x="1080" y="274" width="60" height="30" as="geometry" />
        </mxCell>
        <mxCell id="owQzp86-0gMCmKCXw9nj-351" value="Marital" style="text;html=1;align=center;verticalAlign=middle;resizable=0;points=[];autosize=1;strokeColor=none;fillColor=none;" vertex="1" parent="1">
          <mxGeometry x="1124" y="324" width="60" height="30" as="geometry" />
        </mxCell>
        <mxCell id="owQzp86-0gMCmKCXw9nj-352" value="Birthplace" style="text;html=1;align=center;verticalAlign=middle;resizable=0;points=[];autosize=1;strokeColor=none;fillColor=none;" vertex="1" parent="1">
          <mxGeometry x="1090" y="361" width="80" height="30" as="geometry" />
        </mxCell>
        <mxCell id="owQzp86-0gMCmKCXw9nj-353" value="Address" style="text;html=1;align=center;verticalAlign=middle;resizable=0;points=[];autosize=1;strokeColor=none;fillColor=none;" vertex="1" parent="1">
          <mxGeometry x="1087" y="406" width="70" height="30" as="geometry" />
        </mxCell>
        <mxCell id="owQzp86-0gMCmKCXw9nj-354" value="Zip_Code" style="text;html=1;align=center;verticalAlign=middle;resizable=0;points=[];autosize=1;strokeColor=none;fillColor=none;" vertex="1" parent="1">
          <mxGeometry x="751" y="490" width="80" height="30" as="geometry" />
        </mxCell>
        <mxCell id="owQzp86-0gMCmKCXw9nj-355" value="Lat" style="text;html=1;align=center;verticalAlign=middle;resizable=0;points=[];autosize=1;strokeColor=none;fillColor=none;" vertex="1" parent="1">
          <mxGeometry x="811" y="490" width="40" height="30" as="geometry" />
        </mxCell>
        <mxCell id="owQzp86-0gMCmKCXw9nj-356" value="" style="ellipse;whiteSpace=wrap;html=1;aspect=fixed;fillColor=#FFFFFF;" vertex="1" parent="1">
          <mxGeometry x="782" y="480" width="14" height="14" as="geometry" />
        </mxCell>
        <mxCell id="owQzp86-0gMCmKCXw9nj-357" value="" style="ellipse;whiteSpace=wrap;html=1;aspect=fixed;fillColor=#FFFFFF;" vertex="1" parent="1">
          <mxGeometry x="823" y="480" width="14" height="14" as="geometry" />
        </mxCell>
        <mxCell id="owQzp86-0gMCmKCXw9nj-358" value="Lon" style="text;html=1;align=center;verticalAlign=middle;resizable=0;points=[];autosize=1;strokeColor=none;fillColor=none;" vertex="1" parent="1">
          <mxGeometry x="844" y="490" width="40" height="30" as="geometry" />
        </mxCell>
        <mxCell id="owQzp86-0gMCmKCXw9nj-359" value="" style="ellipse;whiteSpace=wrap;html=1;aspect=fixed;fillColor=#FFFFFF;" vertex="1" parent="1">
          <mxGeometry x="860" y="480" width="14" height="14" as="geometry" />
        </mxCell>
        <mxCell id="owQzp86-0gMCmKCXw9nj-360" value="" style="ellipse;whiteSpace=wrap;html=1;aspect=fixed;fillColor=#FFFFFF;" vertex="1" parent="1">
          <mxGeometry x="884" y="524" width="14" height="14" as="geometry" />
        </mxCell>
        <mxCell id="owQzp86-0gMCmKCXw9nj-361" value="" style="ellipse;whiteSpace=wrap;html=1;aspect=fixed;fillColor=#FFFFFF;" vertex="1" parent="1">
          <mxGeometry x="916" y="546" width="14" height="14" as="geometry" />
        </mxCell>
        <mxCell id="owQzp86-0gMCmKCXw9nj-362" value="Healthcare_expenses" style="text;html=1;align=center;verticalAlign=middle;resizable=0;points=[];autosize=1;strokeColor=none;fillColor=none;" vertex="1" parent="1">
          <mxGeometry x="755" y="516" width="140" height="30" as="geometry" />
        </mxCell>
        <mxCell id="owQzp86-0gMCmKCXw9nj-363" value="Healthcare_coverage" style="text;html=1;align=center;verticalAlign=middle;resizable=0;points=[];autosize=1;strokeColor=none;fillColor=none;" vertex="1" parent="1">
          <mxGeometry x="784" y="538" width="140" height="30" as="geometry" />
        </mxCell>
        <mxCell id="owQzp86-0gMCmKCXw9nj-364" style="edgeStyle=orthogonalEdgeStyle;rounded=0;orthogonalLoop=1;jettySize=auto;html=1;exitX=1;exitY=0.5;exitDx=0;exitDy=0;entryX=0;entryY=0.5;entryDx=0;entryDy=0;endArrow=none;startFill=0;" edge="1" parent="1" source="owQzp86-0gMCmKCXw9nj-365" target="owQzp86-0gMCmKCXw9nj-366">
          <mxGeometry relative="1" as="geometry" />
        </mxCell>
        <mxCell id="owQzp86-0gMCmKCXw9nj-365" value="" style="ellipse;whiteSpace=wrap;html=1;aspect=fixed;fillColor=#FFFFFF;" vertex="1" parent="1">
          <mxGeometry x="1100" y="460" width="14" height="14" as="geometry" />
        </mxCell>
        <mxCell id="owQzp86-0gMCmKCXw9nj-366" value="" style="ellipse;whiteSpace=wrap;html=1;aspect=fixed;fillColor=#FFFFFF;" vertex="1" parent="1">
          <mxGeometry x="1170" y="460" width="14" height="14" as="geometry" />
        </mxCell>
        <mxCell id="owQzp86-0gMCmKCXw9nj-367" style="edgeStyle=orthogonalEdgeStyle;rounded=0;orthogonalLoop=1;jettySize=auto;html=1;exitX=1;exitY=0.5;exitDx=0;exitDy=0;entryX=0;entryY=0.5;entryDx=0;entryDy=0;endArrow=none;startFill=0;" edge="1" parent="1" source="owQzp86-0gMCmKCXw9nj-368" target="owQzp86-0gMCmKCXw9nj-369">
          <mxGeometry relative="1" as="geometry" />
        </mxCell>
        <mxCell id="owQzp86-0gMCmKCXw9nj-368" value="" style="ellipse;whiteSpace=wrap;html=1;aspect=fixed;fillColor=#FFFFFF;" vertex="1" parent="1">
          <mxGeometry x="1100" y="510" width="14" height="14" as="geometry" />
        </mxCell>
        <mxCell id="owQzp86-0gMCmKCXw9nj-369" value="" style="ellipse;whiteSpace=wrap;html=1;aspect=fixed;fillColor=#FFFFFF;" vertex="1" parent="1">
          <mxGeometry x="1170" y="510" width="14" height="14" as="geometry" />
        </mxCell>
        <mxCell id="owQzp86-0gMCmKCXw9nj-370" value="Id_Race" style="text;html=1;align=center;verticalAlign=middle;resizable=0;points=[];autosize=1;strokeColor=none;fillColor=none;" vertex="1" parent="1">
          <mxGeometry x="1077" y="436" width="70" height="30" as="geometry" />
        </mxCell>
        <mxCell id="owQzp86-0gMCmKCXw9nj-371" value="Name" style="text;html=1;align=center;verticalAlign=middle;resizable=0;points=[];autosize=1;strokeColor=none;fillColor=none;" vertex="1" parent="1">
          <mxGeometry x="1152" y="436" width="60" height="30" as="geometry" />
        </mxCell>
        <mxCell id="owQzp86-0gMCmKCXw9nj-372" value="Id_Ethnicity" style="text;html=1;align=center;verticalAlign=middle;resizable=0;points=[];autosize=1;strokeColor=none;fillColor=none;" vertex="1" parent="1">
          <mxGeometry x="1065" y="478" width="90" height="30" as="geometry" />
        </mxCell>
        <mxCell id="owQzp86-0gMCmKCXw9nj-373" value="Name" style="text;html=1;align=center;verticalAlign=middle;resizable=0;points=[];autosize=1;strokeColor=none;fillColor=none;" vertex="1" parent="1">
          <mxGeometry x="1152" y="478" width="60" height="30" as="geometry" />
        </mxCell>
        <mxCell id="owQzp86-0gMCmKCXw9nj-387" style="edgeStyle=orthogonalEdgeStyle;rounded=0;orthogonalLoop=1;jettySize=auto;html=1;exitX=0;exitY=0;exitDx=0;exitDy=0;entryX=1;entryY=1;entryDx=0;entryDy=0;endArrow=none;startFill=0;curved=1;" edge="1" parent="1" source="owQzp86-0gMCmKCXw9nj-374" target="owQzp86-0gMCmKCXw9nj-197">
          <mxGeometry relative="1" as="geometry" />
        </mxCell>
        <mxCell id="owQzp86-0gMCmKCXw9nj-374" value="" style="ellipse;whiteSpace=wrap;html=1;aspect=fixed;fillColor=#FFFFFF;" vertex="1" parent="1">
          <mxGeometry x="667" y="670" width="16" height="16" as="geometry" />
        </mxCell>
        <mxCell id="owQzp86-0gMCmKCXw9nj-375" value="Stop" style="text;html=1;align=center;verticalAlign=middle;resizable=0;points=[];autosize=1;strokeColor=none;fillColor=none;" vertex="1" parent="1">
          <mxGeometry x="651" y="678" width="50" height="30" as="geometry" />
        </mxCell>
        <mxCell id="owQzp86-0gMCmKCXw9nj-376" value="" style="ellipse;whiteSpace=wrap;html=1;aspect=fixed;fillColor=#FFFFFF;" vertex="1" parent="1">
          <mxGeometry x="649" y="724" width="16" height="16" as="geometry" />
        </mxCell>
        <mxCell id="owQzp86-0gMCmKCXw9nj-377" value="Start" style="text;html=1;align=center;verticalAlign=middle;resizable=0;points=[];autosize=1;strokeColor=none;fillColor=none;" vertex="1" parent="1">
          <mxGeometry x="633" y="732" width="50" height="30" as="geometry" />
        </mxCell>
        <mxCell id="owQzp86-0gMCmKCXw9nj-378" value="" style="ellipse;whiteSpace=wrap;html=1;aspect=fixed;fillColor=#FFFFFF;" vertex="1" parent="1">
          <mxGeometry x="530" y="645" width="16" height="16" as="geometry" />
        </mxCell>
        <mxCell id="owQzp86-0gMCmKCXw9nj-379" value="&lt;p style=&quot;margin: 0px; font-variant-numeric: normal; font-variant-east-asian: normal; font-variant-alternates: normal; font-size-adjust: none; font-kerning: auto; font-optical-sizing: auto; font-feature-settings: normal; font-variation-settings: normal; font-variant-position: normal; font-variant-emoji: normal; font-stretch: normal; line-height: normal; text-align: start; text-wrap-mode: wrap;&quot; class=&quot;p1&quot;&gt;Total_Claim_Cost&lt;/p&gt;" style="text;html=1;align=center;verticalAlign=middle;resizable=0;points=[];autosize=1;strokeColor=none;fillColor=none;" vertex="1" parent="1">
          <mxGeometry x="478" y="661" width="120" height="30" as="geometry" />
        </mxCell>
        <mxCell id="owQzp86-0gMCmKCXw9nj-386" style="edgeStyle=orthogonalEdgeStyle;rounded=0;orthogonalLoop=1;jettySize=auto;html=1;exitX=1;exitY=0;exitDx=0;exitDy=0;entryX=0;entryY=1;entryDx=0;entryDy=0;curved=1;endArrow=none;startFill=0;" edge="1" parent="1" source="owQzp86-0gMCmKCXw9nj-380" target="owQzp86-0gMCmKCXw9nj-197">
          <mxGeometry relative="1" as="geometry" />
        </mxCell>
        <mxCell id="owQzp86-0gMCmKCXw9nj-380" value="" style="ellipse;whiteSpace=wrap;html=1;aspect=fixed;fillColor=#FFFFFF;" vertex="1" parent="1">
          <mxGeometry x="564" y="707" width="16" height="16" as="geometry" />
        </mxCell>
        <mxCell id="owQzp86-0gMCmKCXw9nj-381" value="Payer_Coverage" style="text;html=1;align=center;verticalAlign=middle;resizable=0;points=[];autosize=1;strokeColor=none;fillColor=none;" vertex="1" parent="1">
          <mxGeometry x="500" y="720" width="110" height="30" as="geometry" />
        </mxCell>
        <mxCell id="owQzp86-0gMCmKCXw9nj-385" style="edgeStyle=orthogonalEdgeStyle;rounded=0;orthogonalLoop=1;jettySize=auto;html=1;exitX=1;exitY=0;exitDx=0;exitDy=0;entryX=0.055;entryY=0.657;entryDx=0;entryDy=0;entryPerimeter=0;endArrow=none;startFill=0;curved=1;" edge="1" parent="1" source="owQzp86-0gMCmKCXw9nj-378" target="owQzp86-0gMCmKCXw9nj-197">
          <mxGeometry relative="1" as="geometry">
            <Array as="points">
              <mxPoint x="544" y="630" />
              <mxPoint x="570" y="630" />
            </Array>
          </mxGeometry>
        </mxCell>
        <mxCell id="owQzp86-0gMCmKCXw9nj-388" style="edgeStyle=orthogonalEdgeStyle;rounded=0;orthogonalLoop=1;jettySize=auto;html=1;exitX=0;exitY=0;exitDx=0;exitDy=0;entryX=0.7;entryY=0.934;entryDx=0;entryDy=0;entryPerimeter=0;curved=1;endArrow=none;startFill=0;" edge="1" parent="1" source="owQzp86-0gMCmKCXw9nj-376" target="owQzp86-0gMCmKCXw9nj-197">
          <mxGeometry relative="1" as="geometry" />
        </mxCell>
      </root>
    </mxGraphModel>
  </diagram>
</mxfile>
